<?xml version="1.0" encoding="iso-8859-1"?>
<!-- Generator: Adobe Illustrator 19.0.0, SVG Export Plug-In . SVG Version: 6.00 Build 0)  -->
<svg version="1.1" id="Capa_1" xmlns="http://www.w3.org/2000/svg" xmlns:xlink="http://www.w3.org/1999/xlink" x="0px" y="0px"
	 viewBox="0 0 512 512" style="enable-background:new 0 0 512 512;" xml:space="preserve">
<path style="fill:#D8FB93;" d="M10,216.194V466.27c0,19.731,15.995,35.726,35.725,35.726h367.97
	c19.731,0,35.725-15.995,35.725-35.725V216.194L251.773,69.967c-13.11-9.699-31.017-9.699-44.127,0L10,216.194z"/>
<rect x="63.999" y="135.998" style="fill:#FFFFFF;" width="325.997" height="317.688"/>
<path style="fill:#A0E557;" d="M294.438,371.177H164.983L10,216.194V466.27c0,19.731,15.995,35.726,35.725,35.726h367.97
	c19.731,0,35.725-15.995,35.725-35.725V216.194L294.438,371.177z"/>
<path style="fill:#62CD4D;" d="M275.235,351.974c-25.143-25.143-65.907-25.143-91.05,0L35.622,500.537
	c3.205,0.944,6.593,1.458,10.104,1.458h367.97c3.51,0,6.899-0.515,10.104-1.458L275.235,351.974z"/>
<polygon style="fill:#B3B6C3;" points="263.962,174.504 239.192,272.812 337.5,248.043 "/>
<polygon style="fill:#686C83;" points="252.641,219.434 239.192,272.812 292.571,259.363 "/>
<rect x="272.924" y="92.136" transform="matrix(-0.7071 0.7071 -0.7071 -0.7071 729.9072 -14.0667)" style="fill:#FFB954;" width="189.887" height="103.998"/>
<rect x="291.308" y="136.533" transform="matrix(-0.7071 0.7071 -0.7071 -0.7071 774.3008 4.3387)" style="fill:#FEA02C;" width="189.887" height="51.999"/>
<path style="fill:#FE8F8D;" d="M486.77,25.234L486.77,25.234c-20.307-20.307-53.232-20.307-73.538,0l-14.934,14.934l73.538,73.538
	l14.934-14.934C507.077,78.466,507.077,45.541,486.77,25.234z"/>
<path d="M255.998,463.685c2.63,0,5.21-1.06,7.07-2.93c1.86-1.86,2.93-4.43,2.93-7.07c0-2.63-1.07-5.21-2.93-7.069
	c-1.86-1.86-4.44-2.931-7.07-2.931c-2.63,0-5.21,1.07-7.07,2.931c-1.86,1.859-2.93,4.439-2.93,7.069c0,2.641,1.07,5.21,2.93,7.07
	C250.788,462.626,253.368,463.685,255.998,463.685z"/>
<path d="M414.797,97.209c-1.87-1.86-4.44-2.93-7.07-2.93c-2.64,0-5.21,1.069-7.07,2.93c-1.87,1.859-2.93,4.439-2.93,7.07
	c0,2.63,1.06,5.21,2.93,7.069c1.86,1.87,4.43,2.931,7.07,2.931c2.63,0,5.2-1.061,7.07-2.931c1.86-1.859,2.92-4.439,2.92-7.069
	C417.717,101.648,416.657,99.068,414.797,97.209z"/>
<path d="M512,62.004c0-16.562-6.449-32.131-18.159-43.841S466.561,0.005,450,0.005s-32.13,6.449-43.841,18.159l-87.721,87.721
	l-58.645-43.387c-17.787-13.16-41.688-13.16-59.476,0l-85.83,63.5H63.999c-5.523,0-10,4.478-10,10v34.752L4.052,207.703
	C1.503,209.589,0,212.571,0,215.742v250.472c0,25.244,20.538,45.782,45.782,45.782h368.551c25.244,0,45.782-20.538,45.782-45.782
	V215.742c0-3.171-1.503-6.153-4.053-8.039l-36.831-27.248l74.61-74.61C505.551,94.134,512,78.564,512,62.004z M337.5,233.901
	l-22.628-22.628l74.033-74.032c3.905-3.905,3.905-10.237,0-14.143s-10.236-3.904-14.143,0l-74.033,74.033l-22.627-22.627
	L398.232,54.376l59.397,59.397L337.5,233.901z M258.011,239.053l14.941,14.942l-19.974,5.033L258.011,239.053z M295.545,248.302
	l-31.841-31.842l5.65-22.423l24.307,24.307l0,0l0,0l24.308,24.308L295.545,248.302z M212.214,78.576
	c10.673-7.896,25.014-7.896,35.685,0l56.241,41.608l-5.815,5.815H148.116L212.214,78.576z M117.776,145.998
	c0.006,0,0.011,0.001,0.017,0.001c0.008,0,0.017-0.001,0.025-0.001h160.507l-21.435,21.435c-1.327,1.327-2.192,2.938-2.617,4.635
	c-0.003-0.003-0.005-0.005-0.008-0.007l-24.77,98.309c-0.86,3.413,0.137,7.026,2.625,9.515c1.899,1.898,4.452,2.929,7.072,2.929
	c0.813,0,1.634-0.1,2.443-0.303l98.308-24.77c-0.002-0.004-0.003-0.008-0.004-0.011c1.737-0.438,3.344-1.327,4.632-2.615
	l41.543-41.544v52.028l-91.228,91.228l-12.161-12.161c-14.068-14.068-32.773-21.815-52.669-21.815
	c-19.896,0-38.6,7.747-52.668,21.815l-12.161,12.161l-91.228-91.229v-119.6H117.776z M406.115,195.629l28.722,21.249L406.115,245.6
	L406.115,195.629L406.115,195.629z M86.649,463.69h132.349c5.523,0,10-4.478,10-10c0-5.522-4.477-10-10-10H106.649l22.938-22.938
	h65.737c5.523,0,10-4.478,10-10c0-5.522-4.477-10-10-10h-45.738l41.944-41.944c10.291-10.291,23.973-15.958,38.526-15.958
	c14.554,0,28.236,5.667,38.526,15.958L401.77,491.996H58.344L86.649,463.69z M54,245.599l-28.722-28.721L54,195.628V245.599z
	 M20,466.214v-226.33l131.085,131.085L33.392,488.663c-0.032,0.032-0.059,0.068-0.091,0.101C25.377,484.36,20,475.904,20,466.214z
	 M426.814,488.763c-0.032-0.033-0.059-0.068-0.091-0.101L309.029,370.97l131.085-131.085v226.329
	C440.115,475.905,434.738,484.36,426.814,488.763z M471.77,99.63l-59.397-59.397l7.928-7.928
	c7.933-7.934,18.48-12.302,29.699-12.302s21.766,4.368,29.699,12.302C487.632,40.238,492,50.784,492,62.003
	s-4.369,21.766-12.302,29.698L471.77,99.63z"/>
<g>
</g>
<g>
</g>
<g>
</g>
<g>
</g>
<g>
</g>
<g>
</g>
<g>
</g>
<g>
</g>
<g>
</g>
<g>
</g>
<g>
</g>
<g>
</g>
<g>
</g>
<g>
</g>
<g>
</g>
</svg>
